<mxfile host="app.diagrams.net" agent="Mozilla/5.0 (Windows NT 10.0; Win64; x64; rv:133.0) Gecko/20100101 Firefox/133.0" version="25.0.1">
  <diagram name="Page-1" id="Wa052aFKa9Bia7kXxzfk">
    <mxGraphModel dx="2074" dy="1142" grid="1" gridSize="10" guides="1" tooltips="1" connect="1" arrows="1" fold="1" page="1" pageScale="1" pageWidth="850" pageHeight="1100" math="0" shadow="0">
      <root>
        <mxCell id="0" />
        <mxCell id="1" parent="0" />
        <mxCell id="oByA1WbZYRaLfuXk5zpP-6" style="edgeStyle=orthogonalEdgeStyle;rounded=0;orthogonalLoop=1;jettySize=auto;html=1;entryX=0;entryY=0.5;entryDx=0;entryDy=0;" parent="1" source="oByA1WbZYRaLfuXk5zpP-1" edge="1">
          <mxGeometry relative="1" as="geometry">
            <mxPoint x="170" y="40" as="targetPoint" />
          </mxGeometry>
        </mxCell>
        <mxCell id="oByA1WbZYRaLfuXk5zpP-1" value="&lt;div&gt;&lt;b&gt;1S, +3.7V Lithium Ion Battery&lt;/b&gt; &lt;br&gt;&lt;/div&gt;" style="rounded=0;whiteSpace=wrap;html=1;" parent="1" vertex="1">
          <mxGeometry y="10" width="120" height="60" as="geometry" />
        </mxCell>
        <mxCell id="v-_W1gMNBMWAKdvKEkjo-3" value="" style="edgeStyle=orthogonalEdgeStyle;rounded=0;orthogonalLoop=1;jettySize=auto;html=1;" parent="1" source="oByA1WbZYRaLfuXk5zpP-2" target="oByA1WbZYRaLfuXk5zpP-5" edge="1">
          <mxGeometry relative="1" as="geometry" />
        </mxCell>
        <mxCell id="v-_W1gMNBMWAKdvKEkjo-14" value="" style="edgeStyle=orthogonalEdgeStyle;rounded=0;orthogonalLoop=1;jettySize=auto;html=1;dashed=1;dashPattern=12 12;" parent="1" source="oByA1WbZYRaLfuXk5zpP-2" target="oByA1WbZYRaLfuXk5zpP-4" edge="1">
          <mxGeometry relative="1" as="geometry" />
        </mxCell>
        <mxCell id="oByA1WbZYRaLfuXk5zpP-2" value="&lt;div&gt;&lt;b&gt;+28V GSE Line&lt;/b&gt;&lt;/div&gt;&lt;div&gt;For Ground Testing&lt;/div&gt;&lt;div&gt;RF Testing&lt;br&gt;&lt;/div&gt;" style="rounded=0;whiteSpace=wrap;html=1;" parent="1" vertex="1">
          <mxGeometry x="170" y="130" width="120" height="60" as="geometry" />
        </mxCell>
        <mxCell id="v-_W1gMNBMWAKdvKEkjo-12" value="" style="edgeStyle=orthogonalEdgeStyle;rounded=0;orthogonalLoop=1;jettySize=auto;html=1;" parent="1" source="oByA1WbZYRaLfuXk5zpP-4" target="v-_W1gMNBMWAKdvKEkjo-11" edge="1">
          <mxGeometry relative="1" as="geometry" />
        </mxCell>
        <mxCell id="oByA1WbZYRaLfuXk5zpP-4" value="&lt;div&gt;&lt;b&gt;Selection Circuitry&lt;/b&gt;&lt;/div&gt;&lt;div&gt;Disconnects the battery if there&#39;s GSE power&lt;br&gt;&lt;/div&gt;" style="rounded=0;whiteSpace=wrap;html=1;" parent="1" vertex="1">
          <mxGeometry x="170" y="10" width="120" height="60" as="geometry" />
        </mxCell>
        <mxCell id="PvoQchgBHk4X-dD_r0cH-3" value="" style="edgeStyle=orthogonalEdgeStyle;rounded=0;orthogonalLoop=1;jettySize=auto;html=1;" edge="1" parent="1" source="oByA1WbZYRaLfuXk5zpP-5" target="PvoQchgBHk4X-dD_r0cH-1">
          <mxGeometry relative="1" as="geometry" />
        </mxCell>
        <mxCell id="oByA1WbZYRaLfuXk5zpP-5" value="&lt;div&gt;+5V Step Down Converter&lt;/div&gt;" style="rounded=0;whiteSpace=wrap;html=1;" parent="1" vertex="1">
          <mxGeometry x="330" y="130" width="120" height="60" as="geometry" />
        </mxCell>
        <mxCell id="oByA1WbZYRaLfuXk5zpP-10" value="&lt;div&gt;&lt;b&gt;EBYTE &lt;/b&gt;&lt;strong&gt;E22-900M33S&lt;/strong&gt;&lt;/div&gt;&lt;div&gt;2W 868MHz LoRa Module&lt;b&gt;&lt;br&gt;&lt;/b&gt;&lt;/div&gt;" style="rounded=0;whiteSpace=wrap;html=1;" parent="1" vertex="1">
          <mxGeometry x="150" y="340" width="150" height="60" as="geometry" />
        </mxCell>
        <mxCell id="oByA1WbZYRaLfuXk5zpP-11" value="&lt;div&gt;ESP32-S3 WROOM 2&lt;br&gt;&lt;/div&gt;&lt;div&gt;&amp;nbsp;&lt;span style=&quot;font-weight: normal;&quot;&gt;System on Module&lt;/span&gt;&lt;/div&gt;&lt;div&gt;&lt;span style=&quot;font-weight: normal;&quot;&gt;32MB Flash, 8MB PSRAM&lt;/span&gt;&lt;br&gt;&lt;/div&gt;" style="rounded=0;whiteSpace=wrap;html=1;fontStyle=1" parent="1" vertex="1">
          <mxGeometry x="480" y="330" width="120" height="80" as="geometry" />
        </mxCell>
        <mxCell id="oByA1WbZYRaLfuXk5zpP-14" value="+5V" style="text;html=1;align=center;verticalAlign=middle;whiteSpace=wrap;rounded=0;" parent="1" vertex="1">
          <mxGeometry x="540" y="230" width="60" height="30" as="geometry" />
        </mxCell>
        <mxCell id="oByA1WbZYRaLfuXk5zpP-16" value="&lt;div&gt;&lt;b&gt;868MHz Antenna&lt;/b&gt;&lt;/div&gt;" style="rounded=0;whiteSpace=wrap;html=1;" parent="1" vertex="1">
          <mxGeometry x="165" y="467.5" width="120" height="60" as="geometry" />
        </mxCell>
        <mxCell id="oByA1WbZYRaLfuXk5zpP-21" value="" style="endArrow=classic;startArrow=classic;html=1;rounded=0;entryX=0.5;entryY=1;entryDx=0;entryDy=0;exitX=0.5;exitY=0;exitDx=0;exitDy=0;" parent="1" source="oByA1WbZYRaLfuXk5zpP-16" target="oByA1WbZYRaLfuXk5zpP-10" edge="1">
          <mxGeometry width="50" height="50" relative="1" as="geometry">
            <mxPoint x="350" y="470" as="sourcePoint" />
            <mxPoint x="400" y="420" as="targetPoint" />
          </mxGeometry>
        </mxCell>
        <mxCell id="oByA1WbZYRaLfuXk5zpP-23" value="SPI Bus" style="text;html=1;align=center;verticalAlign=middle;whiteSpace=wrap;rounded=0;" parent="1" vertex="1">
          <mxGeometry x="360" y="330" width="60" height="30" as="geometry" />
        </mxCell>
        <mxCell id="PvoQchgBHk4X-dD_r0cH-2" value="" style="edgeStyle=orthogonalEdgeStyle;rounded=0;orthogonalLoop=1;jettySize=auto;html=1;" edge="1" parent="1" source="v-_W1gMNBMWAKdvKEkjo-4" target="PvoQchgBHk4X-dD_r0cH-1">
          <mxGeometry relative="1" as="geometry" />
        </mxCell>
        <mxCell id="v-_W1gMNBMWAKdvKEkjo-4" value="&lt;div&gt;+5V Step Up Converter&lt;/div&gt;" style="rounded=0;whiteSpace=wrap;html=1;" parent="1" vertex="1">
          <mxGeometry x="480" y="10" width="120" height="60" as="geometry" />
        </mxCell>
        <mxCell id="v-_W1gMNBMWAKdvKEkjo-13" value="" style="edgeStyle=orthogonalEdgeStyle;rounded=0;orthogonalLoop=1;jettySize=auto;html=1;" parent="1" source="v-_W1gMNBMWAKdvKEkjo-11" target="v-_W1gMNBMWAKdvKEkjo-4" edge="1">
          <mxGeometry relative="1" as="geometry" />
        </mxCell>
        <mxCell id="v-_W1gMNBMWAKdvKEkjo-11" value="&lt;div&gt;&lt;b&gt;Activation Switch&lt;/b&gt;&lt;/div&gt;&lt;div&gt;Keeps Battery disconnected until FemtoSat leaves the ejector&lt;br&gt;&lt;/div&gt;" style="rounded=0;whiteSpace=wrap;html=1;" parent="1" vertex="1">
          <mxGeometry x="330" width="120" height="80" as="geometry" />
        </mxCell>
        <mxCell id="Bn7Drz4gH1jYpp9yUR1y-1" value="" style="endArrow=classic;html=1;rounded=0;entryX=0.5;entryY=0;entryDx=0;entryDy=0;" parent="1" target="oByA1WbZYRaLfuXk5zpP-10" edge="1">
          <mxGeometry width="50" height="50" relative="1" as="geometry">
            <mxPoint x="540" y="250" as="sourcePoint" />
            <mxPoint x="590" y="220" as="targetPoint" />
            <Array as="points">
              <mxPoint x="225" y="250" />
            </Array>
          </mxGeometry>
        </mxCell>
        <mxCell id="H0pCm_QsT9bV7-cQjPzx-4" value="" style="endArrow=classic;startArrow=classic;html=1;rounded=0;entryX=0;entryY=0.5;entryDx=0;entryDy=0;" parent="1" target="oByA1WbZYRaLfuXk5zpP-11" edge="1">
          <mxGeometry width="50" height="50" relative="1" as="geometry">
            <mxPoint x="300" y="370" as="sourcePoint" />
            <mxPoint x="350" y="320" as="targetPoint" />
          </mxGeometry>
        </mxCell>
        <mxCell id="H0pCm_QsT9bV7-cQjPzx-5" value="&lt;div&gt;&lt;b&gt;Sensors&lt;/b&gt;&lt;/div&gt;&lt;div&gt;BME280 Temperature/Pressure/Humidity Sensor&lt;/div&gt;&lt;div&gt;BNO086 9-Axis IMU&lt;br&gt;&lt;/div&gt;" style="rounded=0;whiteSpace=wrap;html=1;" parent="1" vertex="1">
          <mxGeometry x="422.5" y="460" width="235" height="75" as="geometry" />
        </mxCell>
        <mxCell id="H0pCm_QsT9bV7-cQjPzx-8" value="" style="endArrow=classic;startArrow=classic;html=1;rounded=0;entryX=0.5;entryY=1;entryDx=0;entryDy=0;" parent="1" target="oByA1WbZYRaLfuXk5zpP-11" edge="1">
          <mxGeometry width="50" height="50" relative="1" as="geometry">
            <mxPoint x="540" y="460" as="sourcePoint" />
            <mxPoint x="590" y="410" as="targetPoint" />
          </mxGeometry>
        </mxCell>
        <mxCell id="H0pCm_QsT9bV7-cQjPzx-9" value="I2C Bus" style="text;html=1;align=center;verticalAlign=middle;whiteSpace=wrap;rounded=0;" parent="1" vertex="1">
          <mxGeometry x="460" y="420" width="60" height="30" as="geometry" />
        </mxCell>
        <mxCell id="H0pCm_QsT9bV7-cQjPzx-14" value="" style="edgeStyle=orthogonalEdgeStyle;rounded=0;orthogonalLoop=1;jettySize=auto;html=1;" parent="1" source="H0pCm_QsT9bV7-cQjPzx-11" target="oByA1WbZYRaLfuXk5zpP-11" edge="1">
          <mxGeometry relative="1" as="geometry" />
        </mxCell>
        <mxCell id="H0pCm_QsT9bV7-cQjPzx-11" value="+3.3V Step Down Converter" style="rounded=0;whiteSpace=wrap;html=1;" parent="1" vertex="1">
          <mxGeometry x="490" y="270" width="100" height="40" as="geometry" />
        </mxCell>
        <mxCell id="H0pCm_QsT9bV7-cQjPzx-18" style="edgeStyle=orthogonalEdgeStyle;rounded=0;orthogonalLoop=1;jettySize=auto;html=1;entryX=0.913;entryY=0;entryDx=0;entryDy=0;entryPerimeter=0;" parent="1" source="H0pCm_QsT9bV7-cQjPzx-11" target="H0pCm_QsT9bV7-cQjPzx-5" edge="1">
          <mxGeometry relative="1" as="geometry">
            <Array as="points">
              <mxPoint x="637" y="290" />
            </Array>
          </mxGeometry>
        </mxCell>
        <mxCell id="PvoQchgBHk4X-dD_r0cH-4" value="" style="edgeStyle=orthogonalEdgeStyle;rounded=0;orthogonalLoop=1;jettySize=auto;html=1;" edge="1" parent="1" source="PvoQchgBHk4X-dD_r0cH-1" target="H0pCm_QsT9bV7-cQjPzx-11">
          <mxGeometry relative="1" as="geometry" />
        </mxCell>
        <mxCell id="PvoQchgBHk4X-dD_r0cH-1" value="&lt;div&gt;&lt;b&gt;Power Mux&lt;/b&gt;&lt;/div&gt;&lt;div&gt;Will send power from&amp;nbsp; the GSE line if present, or the battery if it is not&lt;br&gt;&lt;/div&gt;" style="rounded=0;whiteSpace=wrap;html=1;" vertex="1" parent="1">
          <mxGeometry x="480" y="117.5" width="120" height="85" as="geometry" />
        </mxCell>
      </root>
    </mxGraphModel>
  </diagram>
</mxfile>
